<?xml version="1.0" encoding="UTF-8"?>
<svg width="65px" height="62px" viewBox="0 0 65 62" version="1.1" xmlns="http://www.w3.org/2000/svg" xmlns:xlink="http://www.w3.org/1999/xlink">
    <!-- Generator: Sketch 47.1 (45422) - http://www.bohemiancoding.com/sketch -->
    <title>Group 44</title>
    <desc>Created with Sketch.</desc>
    <defs></defs>
    <g id="Page-1" stroke="none" stroke-width="1" fill="none" fill-rule="evenodd">
        <g id="Style-Guide" transform="translate(-211.000000, -2534.000000)">
            <g id="Group-14" transform="translate(119.000000, 2019.000000)">
                <g id="Page-1" transform="translate(8.000000, 109.000000)">
                    <g id="Group-129">
                        <g id="Group-44" transform="translate(85.000000, 407.000000)">
                            <path d="M7.96108795,30.3634733 C7.96108795,16.451169 19.251129,5.17352033 33.1787208,5.17352033 C47.1055427,5.17352033 58.3963537,16.451169 58.3963537,30.3634733 C58.3963537,44.2757776 47.1055427,55.5534263 33.1787208,55.5534263 C19.251129,55.5534263 7.96108795,44.2757776 7.96108795,30.3634733 Z" id="Stroke-28" stroke="#FF6565" stroke-width="10"></path>
                            <path d="M0.844474247,29.2308636 C0.844474247,13.3821721 13.7065756,0.534957676 29.5719126,0.534957676 C45.4380195,0.534957676 58.3001208,13.3821721 58.3001208,29.2308636 C58.3001208,45.0795552 45.4380195,57.9275386 29.5719126,57.9275386 C13.7065756,57.9275386 0.844474247,45.0795552 0.844474247,29.2308636 Z" id="Stroke-29" stroke="#3E3E3E" stroke-width="3"></path>
                            <polyline id="Stroke-30" stroke="#3E3E3E" stroke-width="3" points="13.5892485 29.0899795 25.2596019 39.8508481 42.3166868 17.432436"></polyline>
                        </g>
                    </g>
                </g>
            </g>
        </g>
    </g>
</svg>