<?xml version="1.0" encoding="UTF-8"?>
<svg width="64px" height="64px" viewBox="0 0 64 64" version="1.1" xmlns="http://www.w3.org/2000/svg" xmlns:xlink="http://www.w3.org/1999/xlink">
    <!-- Generator: Sketch 47.1 (45422) - http://www.bohemiancoding.com/sketch -->
    <title>Group 43</title>
    <desc>Created with Sketch.</desc>
    <defs></defs>
    <g id="Page-1" stroke="none" stroke-width="1" fill="none" fill-rule="evenodd">
        <g id="Style-Guide" transform="translate(-128.000000, -2532.000000)">
            <g id="Group-14" transform="translate(119.000000, 2019.000000)">
                <g id="Page-1" transform="translate(8.000000, 109.000000)">
                    <g id="Group-129">
                        <g id="Group-43" transform="translate(5.000000, 408.000000)">
                            <path d="M1.72911671,26.9249173 C1.72911671,12.7034678 13.2701332,1.17511923 27.5072099,1.17511923 C41.7442866,1.17511923 53.285303,12.7034678 53.285303,26.9249173 C53.285303,41.1463668 41.7442866,52.6747154 27.5072099,52.6747154 C13.2701332,52.6747154 1.72911671,41.1463668 1.72911671,26.9249173 Z" id="Stroke-31" stroke="#FF6565" stroke-width="10"></path>
                            <path d="M0.543835616,29.5996387 C0.543835616,13.7509472 13.405937,0.90373278 29.2720438,0.90373278 C45.1373808,0.90373278 57.9994822,13.7509472 57.9994822,29.5996387 C57.9994822,45.4483303 45.1373808,58.2963137 29.2720438,58.2963137 C13.405937,58.2963137 0.543835616,45.4483303 0.543835616,29.5996387 Z" id="Stroke-32" stroke="#3E3E3E" stroke-width="3"></path>
                            <path d="M40.7054334,17.5669682 L17.8381923,41.6326169" id="Stroke-33" stroke="#3E3E3E" stroke-width="3"></path>
                            <path d="M41.3175515,41.0208631 L17.2254584,18.178722" id="Stroke-34" stroke="#3E3E3E" stroke-width="3"></path>
                        </g>
                    </g>
                </g>
            </g>
        </g>
    </g>
</svg>