<?xml version="1.0" encoding="UTF-8"?>
<svg width="54px" height="58px" viewBox="0 0 54 58" version="1.1" xmlns="http://www.w3.org/2000/svg" xmlns:xlink="http://www.w3.org/1999/xlink">
    <!-- Generator: Sketch 47.1 (45422) - http://www.bohemiancoding.com/sketch -->
    <title>Group 42</title>
    <desc>Created with Sketch.</desc>
    <defs></defs>
    <g id="Page-1" stroke="none" stroke-width="1" fill="none" fill-rule="evenodd">
        <g id="Style-Guide" transform="translate(-622.000000, -2447.000000)">
            <g id="Group-14" transform="translate(119.000000, 2019.000000)">
                <g id="Page-1" transform="translate(8.000000, 109.000000)">
                    <g id="Group-129">
                        <g id="Group-42" transform="translate(497.000000, 321.000000)">
                            <path d="M16.3164556,37.288738 C16.3164556,31.9794379 20.624609,27.6760133 25.9397433,27.6760133 C31.2548775,27.6760133 35.563031,31.9794379 35.563031,37.288738 C35.563031,42.5980382 31.2548775,46.9014628 25.9397433,46.9014628 C20.624609,46.9014628 16.3164556,42.5980382 16.3164556,37.288738" id="Fill-61" fill="#FF6565"></path>
                            <path d="M17.4712501,21.5238694 L17.4712501,12.2956537 C17.4712501,5.95125533 22.6678255,0.760383956 29.0191953,0.760383956 C35.3705652,0.760383956 40.5671405,5.95125533 40.5671405,12.2956537 L40.5671405,21.5238694 L17.4712501,21.5238694 Z" id="Fill-62" fill="#FF6565"></path>
                            <path d="M45.3954134,54.3993881 L5.3294326,54.3993881 C2.58641068,54.3993881 0.341490137,52.1577007 0.341490137,49.4176896 L0.341490137,26.3133134 C0.341490137,23.5733024 2.58641068,21.3316149 5.3294326,21.3316149 L45.3954134,21.3316149 C48.1384353,21.3316149 50.382586,23.5733024 50.382586,26.3133134 L50.382586,49.4176896 C50.382586,52.1577007 48.1384353,54.3993881 45.3954134,54.3993881 Z" id="Stroke-63" stroke="#3E3E3E" stroke-width="3"></path>
                            <path d="M13.6219351,21.1393604 L13.6219351,11.9111447 C13.6219351,5.56674633 18.8185104,0.375874965 25.1698803,0.375874965 C31.5212501,0.375874965 36.7178255,5.56674633 36.7178255,11.9111447 L36.7178255,21.1393604" id="Stroke-64" stroke="#3E3E3E" stroke-width="3"></path>
                            <path d="M19.2034419,37.8655015 C19.2034419,34.4679801 21.9610912,31.7133577 25.362346,31.7133577 C28.7636008,31.7133577 31.5212501,34.4679801 31.5212501,37.8655015 C31.5212501,41.263023 28.7636008,44.0176454 25.362346,44.0176454 C21.9610912,44.0176454 19.2034419,41.263023 19.2034419,37.8655015 Z" id="Stroke-65" stroke="#3E3E3E" stroke-width="3"></path>
                        </g>
                    </g>
                </g>
            </g>
        </g>
    </g>
</svg>