<?xml version="1.0" encoding="UTF-8"?>
<svg width="45px" height="67px" viewBox="0 0 45 67" version="1.1" xmlns="http://www.w3.org/2000/svg" xmlns:xlink="http://www.w3.org/1999/xlink">
    <!-- Generator: Sketch 47.1 (45422) - http://www.bohemiancoding.com/sketch -->
    <title>Group 38</title>
    <desc>Created with Sketch.</desc>
    <defs></defs>
    <g id="Page-1" stroke="none" stroke-width="1" fill="none" fill-rule="evenodd">
        <g id="Style-Guide" transform="translate(-623.000000, -2302.000000)" stroke-width="3" stroke="#2B2B2B">
            <g id="Group-14" transform="translate(119.000000, 2019.000000)">
                <g id="Page-1" transform="translate(8.000000, 109.000000)">
                    <g id="Group-129">
                        <g id="Group-38" transform="translate(498.000000, 175.000000)">
                            <path d="M25.4601707,8.43173665 C25.4601707,4.11139364 28.9661268,0.609285754 33.2912173,0.609285754 C37.6163077,0.609285754 41.1230337,4.11139364 41.1230337,8.43173665 C41.1230337,12.7520797 37.6163077,16.2541876 33.2912173,16.2541876 C28.9661268,16.2541876 25.4601707,12.7520797 25.4601707,8.43173665 Z" id="Stroke-116"></path>
                            <path d="M0.288036712,32.4587037 C0.288036712,28.1383607 3.79399288,24.6362528 8.11908329,24.6362528 C12.4441737,24.6362528 15.9508997,28.1383607 15.9508997,32.4587037 C15.9508997,36.7790467 12.4441737,40.2811546 8.11908329,40.2811546 C3.79399288,40.2811546 0.288036712,36.7790467 0.288036712,32.4587037 Z" id="Stroke-117"></path>
                            <path d="M27.6436562,13.8477765 L13.5513137,26.3366285" id="Stroke-118"></path>
                            <path d="M25.4601707,56.5100487 C25.4601707,60.8303917 28.9661268,64.3324996 33.2912173,64.3324996 C37.6163077,64.3324996 41.1230337,60.8303917 41.1230337,56.5100487 C41.1230337,52.1897057 37.6163077,48.6875978 33.2912173,48.6875978 C28.9661268,48.6875978 25.4601707,52.1897057 25.4601707,56.5100487 Z" id="Stroke-119"></path>
                            <path d="M27.6436562,51.0940089 L13.5513137,38.6051568" id="Stroke-120"></path>
                        </g>
                    </g>
                </g>
            </g>
        </g>
    </g>
</svg>