<?xml version="1.0" encoding="UTF-8"?>
<svg width="65px" height="63px" viewBox="0 0 65 63" version="1.1" xmlns="http://www.w3.org/2000/svg" xmlns:xlink="http://www.w3.org/1999/xlink">
    <!-- Generator: Sketch 47.1 (45422) - http://www.bohemiancoding.com/sketch -->
    <title>Group 39</title>
    <desc>Created with Sketch.</desc>
    <defs></defs>
    <g id="Page-1" stroke="none" stroke-width="1" fill="none" fill-rule="evenodd">
        <g id="Style-Guide" transform="translate(-148.000000, -2445.000000)">
            <g id="Group-14" transform="translate(119.000000, 2019.000000)">
                <g id="Page-1" transform="translate(8.000000, 109.000000)">
                    <g id="Group-129">
                        <g id="Group-39" transform="translate(23.000000, 318.000000)">
                            <path d="M37.4189784,38.4887746 C42.1828907,35.7995187 45.4678962,30.1595408 45.4678962,23.625964 C45.4678962,14.4877234 39.0503181,7.07977317 31.1330468,7.07977317 C23.2165455,7.07977317 16.7981975,14.4877234 16.7981975,23.625964 C16.7981975,30.1318562 20.0547181,35.7556846 24.7862962,38.4587828 L6.60521123,49.0819972 L6.60521123,57.9910705 L53.1126359,57.9910705 L53.1126359,49.7179751 L37.4189784,38.4887746 Z" id="Fill-7" fill="#FF6565"></path>
                            <path d="M31.2600742,40.7958285 C36.0239866,38.1065726 39.3089921,32.4665947 39.3089921,25.933018 C39.3089921,16.7947773 32.891414,9.38682711 24.9741427,9.38682711 C17.0576414,9.38682711 10.6392934,16.7947773 10.6392934,25.933018 C10.6392934,32.4389101 13.895814,38.0627386 18.6273921,40.7658368 L0.446307123,51.3890512 L0.446307123,60.2981245 L46.9537318,60.2981245 L46.9537318,52.025029 L31.2600742,40.7958285 Z" id="Stroke-9" stroke="#3E3E3E" stroke-width="3"></path>
                            <path d="M53.4666189,51.3887436 L60.9704737,51.3887436 L60.9704737,43.1156481 L45.2760463,31.8864476 C50.0399586,29.1971917 53.3249641,23.5572138 53.3249641,17.0236371 C53.3249641,7.8853964 46.907386,0.476677178 38.9901148,0.476677178 C35.3494326,0.476677178 32.025934,2.04393582 29.4977038,4.62476017" id="Stroke-11" stroke="#3E3E3E" stroke-width="3"></path>
                        </g>
                    </g>
                </g>
            </g>
        </g>
    </g>
</svg>