<?xml version="1.0" encoding="UTF-8"?>
<svg width="69px" height="51px" viewBox="0 0 69 51" version="1.1" xmlns="http://www.w3.org/2000/svg" xmlns:xlink="http://www.w3.org/1999/xlink">
    <!-- Generator: Sketch 47.1 (45422) - http://www.bohemiancoding.com/sketch -->
    <title>Group 54</title>
    <desc>Created with Sketch.</desc>
    <defs></defs>
    <g id="Page-1" stroke="none" stroke-width="1" fill="none" fill-rule="evenodd">
        <g id="Style-Guide" transform="translate(-543.000000, -2623.000000)">
            <g id="Group-14" transform="translate(119.000000, 2019.000000)">
                <g id="Page-1" transform="translate(8.000000, 109.000000)">
                    <g id="Group-129">
                        <g id="Group-54" transform="translate(417.000000, 497.000000)">
                            <path d="M65.4205441,6.15626833 L65.4205441,6.15626833 C63.8723496,4.64284094 61.3664455,4.67052559 59.8521249,6.21625173 L28.9505934,37.7613693 L8.12194959,17.4023873 C6.57375507,15.8889599 4.06785096,15.9166445 2.55353041,17.4631397 C1.03844,19.0088658 1.06538521,21.5120194 2.61357973,23.0254467 L23.4422236,43.3844288 L29.5480071,48.6214412 L34.5798318,43.2636929 L65.4805934,11.7185754 C66.9956838,10.1728492 66.9687386,7.66969571 65.4205441,6.15626833" id="Fill-68" fill="#FF6565"></path>
                            <path d="M64.4964005,1.54077621 C62.948206,0.0273488243 60.4423019,0.0550334716 58.9279814,1.60075961 L28.0264499,33.1458772 L7.19780603,12.7868952 C5.64961151,11.2734678 3.1437074,11.3011524 1.62938685,12.8476476 C0.114296438,14.3933737 0.141241644,16.8965272 1.68943616,18.4099546 L22.51808,38.7689367 L28.6238636,44.0059491 L33.6556882,38.6482008 L64.5564499,7.10308326 C66.0715403,5.55735712 66.0445951,3.0542036 64.4964005,1.54077621 Z" id="Stroke-69" stroke="#3E3E3E" stroke-width="3"></path>
                        </g>
                    </g>
                </g>
            </g>
        </g>
    </g>
</svg>