<?xml version="1.0" encoding="UTF-8"?>
<svg width="54px" height="53px" viewBox="0 0 54 53" version="1.1" xmlns="http://www.w3.org/2000/svg" xmlns:xlink="http://www.w3.org/1999/xlink">
    <!-- Generator: Sketch 47.1 (45422) - http://www.bohemiancoding.com/sketch -->
    <title>Stroke 111</title>
    <desc>Created with Sketch.</desc>
    <defs></defs>
    <g id="Page-1" stroke="none" stroke-width="1" fill="none" fill-rule="evenodd">
        <g id="Style-Guide" transform="translate(-442.000000, -2315.000000)" stroke-width="3" stroke="#2B2B2B">
            <g id="Group-7" transform="translate(119.000000, 2019.000000)">
                <g id="Group-14">
                    <g id="Page-1" transform="translate(1.000000, 109.000000)">
                        <g id="Group-129">
                            <path d="M372.228819,232.546685 L353.858348,213.585778 L372.84009,195.235471 C374.211216,193.910453 374.2474,191.705678 372.920926,190.336057 C371.593682,188.967205 369.386485,188.931061 368.016129,190.256079 L349.034386,208.606386 L330.663915,189.645479 C329.337441,188.275858 327.130244,188.239714 325.759118,189.565501 C324.387992,190.890519 324.351808,193.095293 325.679052,194.464915 L344.048753,213.425822 L325.067011,231.77536 C323.696655,233.101147 323.660471,235.305152 324.986945,236.674773 C326.314189,238.044394 328.520616,238.080538 329.891742,236.754751 L348.873485,218.405213 L367.243956,237.366121 C368.57043,238.734973 370.777627,238.771116 372.148753,237.446098 C373.51911,236.12108 373.555293,233.916306 372.228819,232.546685 Z" id="Stroke-111"></path>
                        </g>
                    </g>
                </g>
            </g>
        </g>
    </g>
</svg>