<?xml version="1.0" encoding="UTF-8"?>
<svg width="62px" height="65px" viewBox="0 0 62 65" version="1.1" xmlns="http://www.w3.org/2000/svg" xmlns:xlink="http://www.w3.org/1999/xlink">
    <!-- Generator: Sketch 47.1 (45422) - http://www.bohemiancoding.com/sketch -->
    <title>Group 17</title>
    <desc>Created with Sketch.</desc>
    <defs></defs>
    <g id="Page-1" stroke="none" stroke-width="1" fill="none" fill-rule="evenodd">
        <g id="Style-Guide" transform="translate(-337.000000, -2444.000000)">
            <g id="Group-14" transform="translate(119.000000, 2019.000000)">
                <g id="Page-1" transform="translate(8.000000, 109.000000)">
                    <g id="Group-129">
                        <g id="Group-17" transform="translate(213.000000, 317.000000)">
                            <polygon id="Fill-13" fill="#FF6565" points="21.4410466 60.2261134 25.2903616 60.2261134 25.2903616 35.617538 21.4410466 35.617538"></polygon>
                            <g id="Group-16">
                                <path d="M52.2353362,13.700218 C52.2353362,18.5842512 48.2713115,22.5439248 43.3819115,22.5439248 C38.4925115,22.5439248 34.5284868,18.5842512 34.5284868,13.700218 C34.5284868,8.81618479 38.4925115,4.8565112 43.3819115,4.8565112 C48.2713115,4.8565112 52.2353362,8.81618479 52.2353362,13.700218" id="Fill-15" fill="#FF6565"></path>
                                <polygon id="Stroke-16" stroke="#3E3E3E" stroke-width="3" points="0.730114795 13.2262722 44.3651805 13.2262722 22.5480326 36.8358932"></polygon>
                                <path d="M12.0934468,62.2620116 L33.0021564,62.2620116" id="Stroke-17" stroke="#3E3E3E" stroke-width="3"></path>
                                <path d="M22.5477247,36.836047 L22.5477247,62.2620885" id="Stroke-18" stroke="#3E3E3E" stroke-width="3"></path>
                                <path d="M32.375257,8.95299308 C34.1320844,4.03358506 38.8374871,0.513020747 44.3651036,0.513020747 C51.3939529,0.513020747 57.0924789,6.20529184 57.0924789,13.226426 C57.0924789,20.2475602 51.3939529,25.9390622 44.3651036,25.9390622 C42.6960405,25.9390622 41.1016542,25.6183817 39.6412241,25.0346971" id="Stroke-19" stroke="#3E3E3E" stroke-width="3"></path>
                            </g>
                        </g>
                    </g>
                </g>
            </g>
        </g>
    </g>
</svg>