<?xml version="1.0" encoding="UTF-8"?>
<svg width="57px" height="54px" viewBox="0 0 57 54" version="1.1" xmlns="http://www.w3.org/2000/svg" xmlns:xlink="http://www.w3.org/1999/xlink">
    <!-- Generator: Sketch 47.1 (45422) - http://www.bohemiancoding.com/sketch -->
    <title>Group 53</title>
    <desc>Created with Sketch.</desc>
    <defs></defs>
    <g id="Page-1" stroke="none" stroke-width="1" fill="none" fill-rule="evenodd">
        <g id="Style-Guide" transform="translate(-461.000000, -2622.000000)">
            <g id="Group-14" transform="translate(119.000000, 2019.000000)">
                <g id="Page-1" transform="translate(8.000000, 109.000000)">
                    <g id="Group-129">
                        <g id="Group-53" transform="translate(336.000000, 495.000000)">
                            <path d="M52.9733397,44.2177516 L34.6028685,25.2568443 L53.584611,6.90653721 C54.955737,5.58151923 54.9919205,3.37674467 53.6654466,2.00712365 C52.3382027,0.638271646 50.1310055,0.602127801 48.7606493,1.92714578 L29.7789068,20.2774528 L11.4084356,1.3165455 C10.0819616,-0.0530755187 7.87476438,-0.0892193638 6.50363836,1.23656763 C5.13251233,2.56158562 5.09632877,4.76636017 6.4235726,6.13598119 L24.793274,25.0968885 L5.81153151,43.4464266 C4.44117534,44.7722136 4.40499178,46.9762191 5.73146575,48.3458401 C7.05870959,49.7154611 9.26513699,49.751605 10.636263,48.425818 L29.6180055,30.0762799 L47.9884767,49.0371873 C49.3149507,50.4060393 51.5221479,50.4421831 52.893274,49.1171651 C54.2636301,47.7921472 54.2998137,45.5873726 52.9733397,44.2177516" id="Fill-66" fill="#FF6565"></path>
                            <path d="M48.3541616,44.9867696 L29.9836904,26.0258622 L48.9654329,7.67555519 C50.3365589,6.35053721 50.3727425,4.14576266 49.0462685,2.77614163 C47.7190247,1.40728963 45.5118274,1.37114578 44.1414712,2.69616376 L25.1597288,21.0464708 L6.78925753,2.08556349 C5.46278356,0.715942462 3.2555863,0.679798617 1.88446027,2.00558562 C0.513334247,3.3306036 0.477150685,5.53537815 1.80439452,6.90499917 L20.1740959,25.8659065 L1.19235342,44.2154445 C-0.17800274,45.5412315 -0.214186301,47.7452371 1.11228767,49.1148581 C2.43953151,50.4844791 4.6459589,50.520623 6.01708493,49.194836 L24.9988274,30.8452979 L43.3692986,49.8062053 C44.6957726,51.1750573 46.9029699,51.2112011 48.2740959,49.8861831 C49.6444521,48.5611651 49.6806356,46.3563906 48.3541616,44.9867696 Z" id="Stroke-67" stroke="#3E3E3E" stroke-width="3"></path>
                        </g>
                    </g>
                </g>
            </g>
        </g>
    </g>
</svg>