<?xml version="1.0" encoding="UTF-8"?>
<svg width="47px" height="49px" viewBox="0 0 47 49" version="1.1" xmlns="http://www.w3.org/2000/svg" xmlns:xlink="http://www.w3.org/1999/xlink">
    <!-- Generator: Sketch 47.1 (45422) - http://www.bohemiancoding.com/sketch -->
    <title>Group 18</title>
    <desc>Created with Sketch.</desc>
    <defs></defs>
    <g id="Page-1" stroke="none" stroke-width="1" fill="none" fill-rule="evenodd">
        <g id="Style-Guide" transform="translate(-438.000000, -2452.000000)">
            <g id="Group-14" transform="translate(119.000000, 2019.000000)">
                <g id="Page-1" transform="translate(8.000000, 109.000000)">
                    <g id="Group-129">
                        <g id="Group-18" transform="translate(313.000000, 325.000000)">
                            <polygon id="Fill-50" fill="#FF6565" points="44.5970337 12.4185129 40.2811816 8.65032476 37.4434666 12.2070329 33.3139214 8.86103568 29.5685378 12.4946456 26.3104775 9.11711867 22.7852748 12.7430385 19.3078036 9.37320166 15.6902173 13.0021975 12.3043597 9.62928465 7.87610767 14.1595696 8.01391315 14.1980205 15.5316255 44.5357798 38.2564419 45.3047978 44.9334638 12.4023635"></polygon>
                            <polygon id="Stroke-51" stroke="#3E3E3E" stroke-width="3" points="33.6371099 46.073662 10.1424304 46.073662 0.299731781 0.701601107 42.8446715 0.701601107"></polygon>
                            <polyline id="Stroke-52" stroke="#3E3E3E" stroke-width="3" points="3.61861123 14.9183596 7.44329068 11.4239419 10.7714085 14.9183596 14.5968578 11.4239419 18.018129 14.9183596 21.7496551 11.4239419 24.9468962 14.9183596 28.9024523 11.4239419 32.9904249 14.9183596 36.0175263 11.4677759 39.3317866 14.5438479"></polyline>
                        </g>
                    </g>
                </g>
            </g>
        </g>
    </g>
</svg>