<?xml version="1.0" encoding="UTF-8"?>
<svg width="67px" height="58px" viewBox="0 0 67 58" version="1.1" xmlns="http://www.w3.org/2000/svg" xmlns:xlink="http://www.w3.org/1999/xlink">
    <!-- Generator: Sketch 47.1 (45422) - http://www.bohemiancoding.com/sketch -->
    <title>Group 48</title>
    <desc>Created with Sketch.</desc>
    <defs></defs>
    <g id="Page-1" stroke="none" stroke-width="1" fill="none" fill-rule="evenodd">
        <g id="Style-Guide" transform="translate(-622.000000, -2536.000000)">
            <g id="Group-14" transform="translate(119.000000, 2019.000000)">
                <g id="Page-1" transform="translate(8.000000, 109.000000)">
                    <g id="Group-129">
                        <g id="Group-48" transform="translate(497.000000, 410.000000)">
                            <path d="M55.8630868,8.98148271 L55.8630868,8.98148271 C51.4717882,4.51118119 44.2181389,4.44273859 39.7429252,8.82844813 L33.455454,14.9913582 L26.9231663,8.34165975 C22.5326375,3.87135823 15.2782184,3.80214661 10.8037745,8.18862517 C6.32856082,12.5751037 6.25927315,19.8207911 10.6505718,24.2910927 L17.1828595,30.9407911 L32.7802841,47.5585007 L33.1498184,47.1962932 L33.1498184,47.1962932 L49.4231827,31.2460913 L55.7098841,25.0839502 C60.1850978,20.6974716 60.2543855,13.4517842 55.8630868,8.98148271 Z" id="Stroke-114" stroke="#FF6565" stroke-width="11"></path>
                            <path d="M56.345483,4.9993538 L56.345483,4.9993538 C51.2628474,-0.175368188 42.8651816,-0.25457704 37.6855433,4.82247967 L30.4072584,11.9558905 L22.8464337,4.25802047 C17.7630282,-0.915932503 9.36613233,-0.995910373 4.18572411,4.08191535 C-0.993914247,9.15897206 -1.07398,17.5466512 4.00942548,22.7213732 L11.5702501,30.4184741 L29.6250775,49.6546899 L30.0538912,49.2348061 L30.0538912,49.2348061 L48.8908995,30.7722224 L56.1684145,23.6388116 C61.3488227,18.5617549 61.4281186,10.1740758 56.345483,4.9993538 Z" id="Stroke-115" stroke="#2B2B2B" stroke-width="3"></path>
                        </g>
                    </g>
                </g>
            </g>
        </g>
    </g>
</svg>