<?xml version="1.0" encoding="UTF-8"?>
<svg width="40px" height="74px" viewBox="0 0 40 74" version="1.1" xmlns="http://www.w3.org/2000/svg" xmlns:xlink="http://www.w3.org/1999/xlink">
    <!-- Generator: Sketch 47.1 (45422) - http://www.bohemiancoding.com/sketch -->
    <title>Group 25</title>
    <desc>Created with Sketch.</desc>
    <defs></defs>
    <g id="Page-1" stroke="none" stroke-width="1" fill="none" fill-rule="evenodd">
        <g id="Style-Guide" transform="translate(-720.000000, -2611.000000)">
            <g id="Group-25" transform="translate(720.000000, 2612.000000)">
                <path d="M19.901188,72.4627925 C6.74754433,42.2695436 0.1707225,28.5366989 0.1707225,21.2642585 C0.1707225,10.3542942 9.01553263,1.51080851 19.901188,1.51080851 C20.0329373,1.51080851 20.0329373,21.8281365 19.901188,72.4627925 Z" id="Stroke-76-Copy-2" fill="#FF6565"></path>
                <g id="Group-24-Copy" transform="translate(3.000000, 0.000000)" stroke="#2B2B2B" stroke-width="3">
                    <path d="M9,20.496976 C9,15.8042896 12.80847,12 17.5063129,12 C22.2047172,12 26.0131872,15.8042896 26.0131872,20.496976 C26.0131872,25.1896623 22.2047172,28.993952 17.5063129,28.993952 C12.80847,28.993952 9,25.1896623 9,20.496976 Z" id="Stroke-76-Copy" transform="translate(17.506594, 20.496976) rotate(-90.000000) translate(-17.506594, -20.496976) "></path>
                    <path d="M-13.5,31.9868005 C9.9264672,20.3289335 24.8624254,14.5 31.3078747,14.5 C40.9772041,14.5 48.815046,22.3292388 48.815046,31.9868005 C48.815046,41.6443622 40.9772041,49.473601 31.3078747,49.473601 C24.8624254,49.473601 9.9264672,43.6446675 -13.5,31.9868005 Z" id="Stroke-76-Copy-2" transform="translate(17.657523, 31.986801) rotate(-90.000000) translate(-17.657523, -31.986801) "></path>
                </g>
            </g>
        </g>
    </g>
</svg>