<?xml version="1.0" encoding="UTF-8"?>
<svg width="54px" height="58px" viewBox="0 0 54 58" version="1.1" xmlns="http://www.w3.org/2000/svg" xmlns:xlink="http://www.w3.org/1999/xlink">
    <!-- Generator: Sketch 47.1 (45422) - http://www.bohemiancoding.com/sketch -->
    <title>Group 29</title>
    <desc>Created with Sketch.</desc>
    <defs></defs>
    <g id="Page-1" stroke="none" stroke-width="1" fill="none" fill-rule="evenodd">
        <g id="Style-Guide" transform="translate(-600.000000, -2132.000000)" stroke-width="3" stroke="#2B2B2B">
            <g id="Group-14" transform="translate(119.000000, 2019.000000)">
                <g id="Page-1" transform="translate(1.000000, 108.000000)">
                    <g id="Group-129">
                        <g id="Group-29" transform="translate(481.000000, 6.000000)">
                            <path d="M45.9981532,54.8736177 L5.93217233,54.8736177 C3.18915041,54.8736177 0.944229863,52.6319303 0.944229863,49.8919192 L0.944229863,26.787543 C0.944229863,24.047532 3.18915041,21.8058445 5.93217233,21.8058445 L45.9981532,21.8058445 C48.7411751,21.8058445 50.9853258,24.047532 50.9853258,26.787543 L50.9853258,49.8919192 C50.9853258,52.6319303 48.7411751,54.8736177 45.9981532,54.8736177 Z" id="Stroke-108"></path>
                            <path d="M14.2246748,21.61359 L14.2246748,12.3853743 C14.2246748,6.04097593 19.4212501,0.850104564 25.77262,0.850104564 C32.1239899,0.850104564 37.3205652,6.04097593 37.3205652,12.3853743 L37.3205652,21.61359" id="Stroke-109"></path>
                            <path d="M19.8061816,38.3397311 C19.8061816,34.9422097 22.563831,32.1875873 25.9650858,32.1875873 C29.3663405,32.1875873 32.1239899,34.9422097 32.1239899,38.3397311 C32.1239899,41.7372526 29.3663405,44.491875 25.9650858,44.491875 C22.563831,44.491875 19.8061816,41.7372526 19.8061816,38.3397311 Z" id="Stroke-110"></path>
                        </g>
                    </g>
                </g>
            </g>
        </g>
    </g>
</svg>