<?xml version="1.0" encoding="UTF-8"?>
<svg width="21px" height="55px" viewBox="0 0 21 55" version="1.1" xmlns="http://www.w3.org/2000/svg" xmlns:xlink="http://www.w3.org/1999/xlink">
    <!-- Generator: Sketch 47.1 (45422) - http://www.bohemiancoding.com/sketch -->
    <title>Group 39</title>
    <desc>Created with Sketch.</desc>
    <defs></defs>
    <g id="Page-1" stroke="none" stroke-width="1" fill="none" fill-rule="evenodd">
        <g id="Style-Guide" transform="translate(-721.000000, -2523.000000)">
            <g id="Group-39" transform="translate(721.000000, 2523.000000)">
                <g id="Group-38-Copy">
                    <path d="M13,2 L13,54.1820849" id="Stroke-87-Copy" stroke="#FF6565" stroke-width="5"></path>
                    <path d="M9.755,40.02 C12.1850122,40.02 14.0749933,39.5775044 15.425,38.6925 C16.7750067,37.8074956 17.45,36.3750099 17.45,34.395 C17.45,33.2549943 17.2325022,32.3025038 16.7975,31.5375 C16.3624978,30.7724962 15.7850036,30.1275026 15.065,29.6025 C14.3449964,29.0774974 13.5200047,28.6275019 12.59,28.2525 C11.6599954,27.8774981 10.6850051,27.4800021 9.665,27.06 C8.37499355,26.5499974 7.2200051,26.0250027 6.2,25.485 C5.1799949,24.9449973 4.3100036,24.3375034 3.59,23.6625 C2.8699964,22.9874966 2.32250187,22.2150044 1.9475,21.345 C1.57249813,20.4749956 1.385,19.4550058 1.385,18.285 C1.385,15.6149866 2.26999115,13.5900069 4.04,12.21 C5.81000885,10.8299931 8.26998425,10.14 11.42,10.14 C12.2600042,10.14 13.084996,10.1999994 13.895,10.32 C14.705004,10.4400006 15.4624965,10.597499 16.1675,10.7925 C16.8725035,10.987501 17.5174971,11.2049988 18.1025,11.445 C18.6875029,11.6850012 19.174998,11.9399986 19.565,12.21 L18.485,14.775 C17.6149956,14.174997 16.5575062,13.6950018 15.3125,13.335 C14.0674938,12.9749982 12.7250072,12.795 11.285,12.795 C10.2949951,12.795 9.38750412,12.892499 8.5625,13.0875 C7.73749588,13.282501 7.025003,13.5974978 6.425,14.0325 C5.824997,14.4675022 5.35250173,15.0149967 5.0075,15.675 C4.66249827,16.3350033 4.49,17.1299954 4.49,18.06 C4.49,19.0200048 4.6699982,19.8299967 5.03,20.49 C5.3900018,21.1500033 5.89249678,21.7199976 6.5375,22.2 C7.18250323,22.6800024 7.93999565,23.114998 8.81,23.505 C9.68000435,23.8950019 10.6249949,24.2999979 11.645,24.72 C12.8750061,25.2300025 14.0374945,25.7399974 15.1325,26.25 C16.2275055,26.7600026 17.179996,27.3599965 17.99,28.05 C18.800004,28.7400035 19.4449976,29.579995 19.925,30.57 C20.4050024,31.5600049 20.645,32.7749928 20.645,34.215 C20.645,37.0350141 19.6625098,39.149993 17.6975,40.56 C15.7324902,41.970007 13.0700168,42.675 9.71,42.675 C8.509994,42.675 7.41500495,42.6000008 6.425,42.45 C5.43499505,42.2999992 4.5500039,42.1125011 3.77,41.8875 C2.9899961,41.6624989 2.3300027,41.4300012 1.79,41.19 C1.2499973,40.9499988 0.8300015,40.7400009 0.53,40.56 L1.52,37.905 C1.8200015,38.0850009 2.22499745,38.2949988 2.735,38.535 C3.24500255,38.7750012 3.84499655,39.0074989 4.535,39.2325 C5.22500345,39.4575011 6.00499565,39.6449993 6.875,39.795 C7.74500435,39.9450007 8.70499475,40.02 9.755,40.02 Z" id="S" fill="#2F2F2F"></path>
                    <path d="M11,0 L11,52.1820849" id="Stroke-87" stroke="#2B2B2B" stroke-width="3"></path>
                </g>
            </g>
        </g>
    </g>
</svg>