<svg id="svg_drink_red" xmlns="http://www.w3.org/2000/svg" viewBox="0 0 59.84 62"><defs><style>.cls-1{fill:#ff6565;}.cls-2{fill:none;stroke:#2f2f2f;stroke-miterlimit:10;stroke-width:3px;}</style></defs><title>red_drink</title><g id="Layer_2" data-name="Layer 2"><g id="Layer_1-2" data-name="Layer 1"><g id="red_drink"><polygon class="cls-1" points="59.4 16.74 53.79 11.84 50.11 16.46 44.74 12.11 39.88 16.84 35.65 12.44 31.07 17.16 26.55 12.78 21.85 17.5 17.45 13.11 11.7 19 11.88 19.05 21.64 58.5 51.16 59.5 59.84 16.71 59.4 16.74"/><polygon class="cls-2" points="45.16 60.5 14.64 60.5 1.86 1.5 57.12 1.5 45.16 60.5"/><polyline class="cls-2" points="6.17 19.99 11.14 15.44 15.46 19.99 20.43 15.44 24.88 19.99 29.72 15.44 33.87 19.99 39.01 15.44 44.32 19.99 48.26 15.5 52.56 19.5"/></g></g></g></svg>
