<?xml version="1.0" encoding="UTF-8"?>
<svg width="47px" height="68px" viewBox="0 0 47 68" version="1.1" xmlns="http://www.w3.org/2000/svg" xmlns:xlink="http://www.w3.org/1999/xlink">
    <!-- Generator: Sketch 47.1 (45422) - http://www.bohemiancoding.com/sketch -->
    <title>Group 51</title>
    <desc>Created with Sketch.</desc>
    <defs></defs>
    <g id="Page-1" stroke="none" stroke-width="1" fill="none" fill-rule="evenodd">
        <g id="Style-Guide" transform="translate(-637.000000, -2615.000000)">
            <g id="Group-14" transform="translate(119.000000, 2019.000000)">
                <g id="Page-1" transform="translate(8.000000, 109.000000)">
                    <g id="Group-129">
                        <g id="Group-51" transform="translate(512.000000, 489.000000)">
                            <path d="M28.397157,9.72910871 C28.397157,5.4087657 31.9031132,1.90665781 36.2282036,1.90665781 C40.553294,1.90665781 44.06002,5.4087657 44.06002,9.72910871 C44.06002,14.0494517 40.553294,17.5515596 36.2282036,17.5515596 C31.9031132,17.5515596 28.397157,14.0494517 28.397157,9.72910871" id="Fill-121" fill="#FF6565"></path>
                            <path d="M3.76154055,33.5686661 C3.76154055,29.2483231 7.26749671,25.7462152 11.5925871,25.7462152 C15.9176775,25.7462152 19.4244036,29.2483231 19.4244036,33.5686661 C19.4244036,37.8890091 15.9176775,41.391117 11.5925871,41.391117 C7.26749671,41.391117 3.76154055,37.8890091 3.76154055,33.5686661" id="Fill-122" fill="#FF6565"></path>
                            <path d="M35.4583405,50.3547906 C39.783431,50.3547906 43.290157,53.8568985 43.290157,58.1772415 C43.290157,62.4975845 39.783431,65.9996924 35.4583405,65.9996924 C31.1332501,65.9996924 27.627294,62.4975845 27.627294,58.1772415 C27.627294,53.8568985 31.1332501,50.3547906 35.4583405,50.3547906 Z" id="Fill-123" fill="#FF6565"></path>
                            <path d="M25.3177049,8.19107275 C25.3177049,3.87072974 28.8236611,0.368621853 33.1487515,0.368621853 C37.4738419,0.368621853 40.9805679,3.87072974 40.9805679,8.19107275 C40.9805679,12.5114158 37.4738419,16.0135237 33.1487515,16.0135237 C28.8236611,16.0135237 25.3177049,12.5114158 25.3177049,8.19107275 Z" id="Stroke-124" stroke="#2B2B2B" stroke-width="3"></path>
                            <path d="M0.145570959,32.2180398 C0.145570959,27.8976968 3.65152712,24.3955889 7.97661753,24.3955889 C12.3017079,24.3955889 15.808434,27.8976968 15.808434,32.2180398 C15.808434,36.5383828 12.3017079,40.0404907 7.97661753,40.0404907 C3.65152712,40.0404907 0.145570959,36.5383828 0.145570959,32.2180398 Z" id="Stroke-125" stroke="#2B2B2B" stroke-width="3"></path>
                            <path d="M27.5011904,13.6071126 L13.4088479,26.0959646" id="Stroke-126" stroke="#2B2B2B" stroke-width="3"></path>
                            <path d="M25.3177049,56.2693848 C25.3177049,60.5897278 28.8236611,64.0918357 33.1487515,64.0918357 C37.4738419,64.0918357 40.9805679,60.5897278 40.9805679,56.2693848 C40.9805679,51.9490418 37.4738419,48.4469339 33.1487515,48.4469339 C28.8236611,48.4469339 25.3177049,51.9490418 25.3177049,56.2693848 Z" id="Stroke-127" stroke="#2B2B2B" stroke-width="3"></path>
                            <path d="M27.5011904,50.853345 L13.4088479,38.3644929" id="Stroke-128" stroke="#2B2B2B" stroke-width="3"></path>
                        </g>
                    </g>
                </g>
            </g>
        </g>
    </g>
</svg>