<?xml version="1.0" encoding="UTF-8"?>
<svg width="46px" height="50px" viewBox="0 0 46 50" version="1.1" xmlns="http://www.w3.org/2000/svg" xmlns:xlink="http://www.w3.org/1999/xlink">
    <!-- Generator: Sketch 47.1 (45422) - http://www.bohemiancoding.com/sketch -->
    <title>Group 40</title>
    <desc>Created with Sketch.</desc>
    <defs></defs>
    <g id="Page-1" stroke="none" stroke-width="1" fill="none" fill-rule="evenodd">
        <g id="Style-Guide" transform="translate(-706.000000, -2455.000000)" fill-rule="nonzero">
            <g id="Group-40" transform="translate(706.000000, 2455.000000)">
                <g id="noun_130926-copy-2" transform="translate(1.000000, 8.000000)" fill="#FF6565">
                    <polygon id="Shape" points="0.141893655 8.8817842e-14 19.748801 0.516978539 41.9672445 22.7360784 22.8757444 41.8276934 0.659914535 19.6117299 0.14137093 8.8817842e-14"></polygon>
                </g>
                <g id="noun_130926-copy" fill="#000000">
                    <path d="M0.579858328,0.585602414 C0.193041525,0.972421543 -0.013435011,1.50403648 0.000678575001,2.04715145 L0.521835807,21.757677 C0.535426668,22.2856329 0.752357713,22.7811795 1.12192458,23.1507486 L23.3764361,45.405394 C24.1516379,46.1806005 25.4479969,46.2093506 26.2341759,45.4236895 L45.4239484,26.2338016 C46.2096047,25.4476179 46.1803321,24.1522965 45.4051303,23.3770901 L23.1516642,1.12296737 C22.7826201,0.753398279 22.2855082,0.535420472 21.7596464,0.521306801 L2.04871673,0.000669162221 C1.50403685,-0.0134445087 0.969811482,0.196169641 0.582471955,0.585079685 L0.579858328,0.585602414 Z M2.0790348,2.07903789 L21.6859421,2.59601643 L43.9043856,24.8151163 L24.8128855,43.9067313 L2.59705568,21.6907678 L2.07851207,2.07903789 L2.0790348,2.07903789 Z M8.29110355,8.29323493 C6.47515549,10.1097167 6.47515549,13.0856103 8.29110355,14.902092 C10.1070516,16.7185738 13.0834501,16.7185738 14.8993982,14.902092 C16.715869,13.0856103 16.7153462,10.1097167 14.8993982,8.29323493 C13.0834501,6.47675321 10.1070516,6.47675321 8.29110355,8.29323493 L8.29110355,8.29323493 Z M9.75943923,9.76157944 C10.7818901,8.73912239 12.4080889,8.73912239 13.4289716,9.76157944 C14.4514225,10.7840365 14.4514225,12.4107678 13.4289716,13.4311339 C12.4065207,14.4535909 10.780322,14.4535909 9.75943923,13.4311339 C8.73698833,12.4086768 8.73698833,10.7824683 9.75943923,9.76157944 L9.75943923,9.76157944 Z" id="Shape"></path>
                </g>
            </g>
        </g>
    </g>
</svg>