<?xml version="1.0" encoding="UTF-8"?>
<svg width="64px" height="64px" viewBox="0 0 64 64" version="1.1" xmlns="http://www.w3.org/2000/svg" xmlns:xlink="http://www.w3.org/1999/xlink">
    <!-- Generator: Sketch 47.1 (45422) - http://www.bohemiancoding.com/sketch -->
    <title>Group 24</title>
    <desc>Created with Sketch.</desc>
    <defs></defs>
    <g id="Page-1" stroke="none" stroke-width="1" fill="none" fill-rule="evenodd">
        <g id="Style-Guide" transform="translate(-140.000000, -2129.000000)" stroke-width="3" stroke="#2B2B2B">
            <g id="Group-14" transform="translate(119.000000, 2019.000000)">
                <g id="Page-1" transform="translate(0.000000, 108.000000)">
                    <g id="Group-129">
                        <g id="Group-24" transform="translate(22.000000, 3.000000)">
                            <path d="M31.7203482,41.2700581 C36.4842605,38.5808022 39.769266,32.9408243 39.769266,26.4072476 C39.769266,17.2690069 33.3516879,9.86105671 25.4344167,9.86105671 C17.5179153,9.86105671 11.0995674,17.2690069 11.0995674,26.4072476 C11.0995674,32.9131397 14.3560879,38.5369682 19.087666,41.2400664 L0.906581096,51.8632808 L0.906581096,60.7723541 L47.4140058,60.7723541 L47.4140058,52.4992586 L31.7203482,41.2700581 Z" id="Stroke-93"></path>
                            <path d="M53.9268929,51.8629732 L61.4307477,51.8629732 L61.4307477,43.5898777 L45.7363203,32.3606772 C50.5002326,29.6714213 53.7852381,24.0314434 53.7852381,17.4978667 C53.7852381,8.359626 47.36766,0.951675795 39.4503888,0.951675795 C35.8097066,0.951675795 32.4862079,2.51816542 29.9579778,5.09898976" id="Stroke-94"></path>
                        </g>
                    </g>
                </g>
            </g>
        </g>
    </g>
</svg>