<?xml version="1.0" encoding="UTF-8"?>
<svg width="47px" height="69px" viewBox="0 0 47 69" version="1.1" xmlns="http://www.w3.org/2000/svg" xmlns:xlink="http://www.w3.org/1999/xlink">
    <!-- Generator: Sketch 47.1 (45422) - http://www.bohemiancoding.com/sketch -->
    <title>Group 19</title>
    <desc>Created with Sketch.</desc>
    <defs></defs>
    <g id="Page-1" stroke="none" stroke-width="1" fill="none" fill-rule="evenodd">
        <g id="Style-Guide" transform="translate(-532.000000, -2442.000000)">
            <g id="Group-14" transform="translate(119.000000, 2019.000000)">
                <g id="Page-1" transform="translate(8.000000, 109.000000)">
                    <g id="Group-129">
                        <g id="Group-19" transform="translate(407.000000, 314.000000)">
                            <path d="M18.9557882,0.470093499 L18.9557882,16.4564393 C18.9557882,20.594525 15.5668512,23.9797422 11.4242184,23.9797422 C7.28235534,23.9797422 3.89341836,20.594525 3.89341836,16.4564393 L3.89341836,0.656964869" id="Fill-56" fill="#FF6565"></path>
                            <path d="M7.57513425,2.00812946 L7.57513425,67.8352996" id="Stroke-57" stroke="#3E3E3E" stroke-width="3"></path>
                            <path d="M34.9598545,29.4503054 L34.9598545,0.940501798 C34.9598545,0.940501798 44.3737395,-4.23191314 44.3737395,29.6217964 L35.4302408,29.6217964" id="Fill-58" fill="#FF6565"></path>
                            <path d="M31.1105395,68.3051696 L31.1105395,30.9885721 L31.1105395,2.47799945 C31.1105395,2.47799945 40.5244244,-2.69364647 40.5244244,31.1600631 L31.5809258,31.1600631" id="Stroke-59" stroke="#3E3E3E" stroke-width="3"></path>
                            <path d="M15.1064732,2.00812946 L15.1064732,17.9944752 C15.1064732,22.132561 11.7175362,25.5177781 7.57490329,25.5177781 C3.43304027,25.5177781 0.0441032877,22.132561 0.0441032877,17.9944752 L0.0441032877,2.19500083" id="Stroke-60" stroke="#3E3E3E" stroke-width="3"></path>
                        </g>
                    </g>
                </g>
            </g>
        </g>
    </g>
</svg>